<svg width="232" height="226" viewBox="0 0 232 226" fill="none" xmlns="http://www.w3.org/2000/svg">
<path d="M127.577 0.345302C127.958 0.143229 128.548 0.143229 128.975 0.0869141C133.133 1.46167 134.461 3.83354 137.479 6.73543L139.106 4.5292C142.68 4.14493 151.18 8.64022 154.466 10.1806C153.526 11.5289 152.989 12.5989 152.519 14.1757C153.565 15.4544 155.984 15.7823 157.58 16.2759L157.391 18.4523L159.27 20.1054L158.816 21.0064L157.302 20.4565L156.832 20.7049C158.395 23.7857 162.076 24.7464 164.09 27.6814C164.57 28.3804 165.176 28.4102 165.958 28.7084L168.267 27.1812L168.323 29.6226L168.9 29.9705C170.033 29.2351 171.245 28.4963 172.269 27.6119C174.498 25.6938 174.69 24.9253 174.912 22.1294C175.939 21.8213 176.38 22.8317 177.085 23.534C181.2 27.6218 183.966 29.1622 189.551 30.8053C189.402 31.8786 189.64 31.9382 190.14 32.8492C193.258 33.5912 195.322 30.4906 198.465 31.1133C196.835 33.144 195.199 35.8505 195.335 38.4377C196.017 38.7192 196.544 38.9445 197.157 39.3718C195.62 40.6604 194.02 41.7636 192.35 42.8766L192.615 43.3835C194.202 42.87 195.792 42.3698 197.389 41.8895L197.925 42.8037L196.862 44.9934L198.462 44.7417L197.2 45.5102L198.919 46.7723C198.001 47.3554 197.246 47.6435 196.236 48.0311L196.279 48.793C198.608 48.9719 200.652 48.2961 202.573 49.661C204.451 49.6709 205.972 49.545 207.631 50.5156L207.923 51.8672C206.75 51.8573 205.866 51.8871 204.72 52.2018L205.481 53.2817C204.676 55.2262 200.668 56.4155 198.956 58.2143C198.975 60.6292 200.3 59.2246 201.5 61.0168C200.287 62.3982 199.214 63.8292 198.157 65.3299L198.402 66.5986C198.919 66.4496 199.442 66.317 199.959 66.168C202.122 65.5353 203.322 65.045 205.521 65.7671C208.324 68.4802 206.098 71.9651 207.704 75.5726C211.537 77.7557 210.914 73.8964 213.73 73.5652C213.846 75.5528 213.22 75.9072 212.08 77.484C211.988 80.0547 213.949 81.4162 215.615 83.2912C214.81 85.5106 212.375 84.381 210.974 86.5111C211.699 88.4788 214.449 90.0622 216.095 91.331L216.181 92.3778L213.906 94.3058C214.485 95.0909 215.022 95.823 215.453 96.7041L213.757 97.3832L213.992 98.069C218.891 102.574 225.056 102.19 231.088 103.916C229.058 106.43 216.112 109.239 212.196 112.244C210.894 113.241 210.765 113.304 210.56 114.911C212.375 116.173 214.306 115.586 216.35 116.414C216.88 118.485 216.311 119.28 215.612 121.261C218.669 122.894 222.244 120.628 225.669 122.526L225.424 123.318L222.548 124.312L222.366 125.044L226.027 127.22C224.645 127.956 222.797 127.591 221.227 127.532L225.251 130.142C225.871 131.447 226.288 131.716 225.825 133.127C224.96 132.65 224.225 132.428 223.264 132.213C222.187 134.17 222.664 134.558 223.217 136.652L222.585 137.076C221.608 135.986 220.634 134.869 219.587 133.842C218.341 132.623 217.367 131.421 215.575 131.418L215.522 132.7C214.585 134.094 213.826 133.995 212.246 134.432C213.66 135.426 216.238 136.768 216.953 138.334C215.638 138.05 214.349 137.808 213.008 137.682C211.689 137.556 211.785 137.665 210.749 138.53C210.729 139.871 210.699 141.038 210.146 142.29C210.013 142.585 209.874 142.879 209.738 143.171C211.481 145.433 216.619 146.593 219.352 148.246L219.371 148.985C214.667 149.664 210.722 144.529 205.896 146.209C205.687 147.179 205.621 146.725 206.064 147.577L206.72 147.222C213.584 147.772 213.074 152.065 216.595 152.526C218.361 152.758 219.945 152.062 221.462 153.182C219.65 154.722 218.053 154.557 215.771 154.825C216.006 156.498 216.321 157.667 217.198 159.125C217.275 159.254 217.357 159.383 217.437 159.509C216.506 161.208 214.462 161.646 212.716 162.434L213.087 163.07C215.121 163.527 217.175 163.388 219.246 163.352L219.663 163.928C217.97 164.12 214.72 164.024 213.458 165.054L213.372 166.32L210.023 166.707C210.54 167.595 210.848 168.112 210.855 169.155L208.496 169.639L209.198 169.656L208.658 169.944L208.761 170.328C208.257 170.722 207.727 171.183 207.191 171.537C206.913 171.723 206.535 171.878 206.3 172.13C204.852 173.69 205.289 174.346 205.525 176.271C202.666 176.94 199.804 174.356 196.713 174.674C196.551 175.648 196.415 176.506 196.004 177.407C195.239 179.084 195.129 179.017 193.35 179.69C196.342 180.796 200.006 181.783 202.421 183.894L202.454 185.056C201.334 185.865 200.698 186.252 199.313 186.424C198.081 186.58 197.041 186.819 195.852 187.173C196.62 188.144 197.458 189.041 198.296 189.949C194.924 189.773 191.535 186.59 187.858 186.1L187.888 187.041C189.793 189.098 191.996 190.545 194.308 192.099L192.668 192.337C190.419 196.717 190.439 192.99 187.225 194.047C187.504 195.306 187.706 196.164 187.5 197.459C186.003 197.287 185.705 197.373 184.598 196.386L186.129 194.256C185.943 194.193 185.764 194.106 185.576 194.063C183.396 193.56 179.384 194.259 177.622 195.607C176.042 196.813 176.115 197.913 175.972 199.692L174.67 199.98L173.938 201.59L173.286 201.808L171.848 198.41L171.026 198.532C170.48 200.106 170.274 201.06 170.493 202.723C172.57 205.211 175.972 204.69 178.361 206.599C179.248 207.307 179.027 207.476 179.159 208.536C177.764 208.553 177.042 207.533 175.989 206.671C175.681 207.887 175.283 208.974 174.813 210.13L173.726 210.295C171.126 209.017 169.34 206.277 167.21 204.329L166.766 206.638L163.311 204.227C161.615 204.253 161.281 204.518 159.863 205.35L159.23 203.584C156.653 201.431 155.613 203.332 153.085 202.441C150.985 201.699 150.514 199.34 147.894 199.357L146.91 200.722C147.589 202.309 148.133 203.859 148.596 205.519C147.314 205.035 146.476 203.852 145.579 202.862L144.3 203.355C143.873 205.601 145.466 207.473 146.105 209.696C141.872 212.412 140.977 207.924 136.863 207.669C133.308 210.56 135.12 215.062 134.514 219.101C133.507 217.163 132.53 215.205 131.592 213.23C130.529 215.119 132.927 217.971 132.007 220.498L130.655 220.432C129.383 219.104 128.154 217.742 126.961 216.341C124.964 217.047 123.801 217.332 121.731 216.712C121.565 216.662 121.406 216.606 121.244 216.553L120.793 217.62L120.2 217.567C117.895 216.447 116.222 216.49 113.803 217.265C113.595 217.332 113.389 217.404 113.184 217.477C111.899 216.298 111.147 215.529 109.378 215.308C105.575 216.785 103.61 221.217 100.278 223.559C92.2413 229.201 88.0408 217.597 81.0279 216.374C78.9675 217.176 78.7985 218.13 77.6821 219.985L76.8142 219.786L76.5492 218.66C77.4502 217.451 78.0896 216.414 78.6428 215.009C77.5894 213.764 76.1053 213.085 74.704 212.29C73.962 213.151 73.2266 213.87 72.3487 214.595C72.4249 211.143 73.3359 206.059 71.8187 202.974L70.5102 202.647C68.9864 203.296 67.6646 203.773 66.0248 204.035L64.7959 202.994C64.6832 200.622 66.3131 199.384 67.1445 197.177L65.359 196.087C64.458 196.435 63.8782 196.634 62.9076 196.574C63.113 194.848 63.5536 194.103 62.5068 192.665L60.2972 193.149C58.6575 191.754 58.2467 189.744 57.5809 187.766C54.7916 188.233 49.223 189.833 46.6921 188.879C47.7787 186.699 50.2334 185.45 52.2011 184.112C51.5386 183.672 51.0549 183.496 50.2632 183.373C43.2502 182.287 40.1099 185.861 34.8991 189.701C32.0402 189.803 31.5996 186.183 28.8799 185.119C26.465 184.175 24.0964 185.507 21.9266 183.562C21.0521 178.143 26.2861 172.538 28.3068 167.665C27.4555 166.558 25.1764 166.396 23.7784 166.075C24.8053 164.22 27.5019 163.951 29.5027 163.299C30.6489 161.878 30.6522 161.954 30.5627 160.135C29.4961 159.85 28.4261 159.585 27.3495 159.34C26.8493 157.863 26.5478 156.723 25.3288 155.656L23.7387 156.627C22.2943 155.501 22.6952 154.242 21.7312 152.983C21.6318 152.854 21.4463 152.827 21.3039 152.751C18.4947 151.207 15.7916 149.621 13.2971 147.593C11.0545 145.771 8.68923 141.843 6.1716 140.809C5.90659 140.7 5.63164 140.607 5.36331 140.508C6.03247 139.746 7.48671 139.216 7.93392 138.613C9.49419 136.503 7.02958 131.275 8.77867 129.178L11.2201 129.798C12.1443 129.062 12.1874 128.145 12.4392 127.045L11.3923 125.72C8.49708 124.266 5.09498 124.189 1.91813 123.838L1.35497 123.119C2.62041 122.553 4.06804 122.165 4.75045 120.88L0.960763 119.578L0.632812 118.405C1.79225 117.216 2.7198 116.173 3.53803 114.718L1.33841 113.814C3.04775 110.882 8.75879 108.53 11.7203 106.486C11.6408 104.794 11.3923 103.19 12.1576 101.62L13.9232 101.531C15.129 100.616 15.2086 100.341 15.775 98.917C14.6023 95.4519 10.9518 95.124 8.75548 92.7024C8.01344 91.8842 8.48715 87.2498 7.24159 84.6659L7.97369 83.7384C11.7203 82.7677 15.6657 84.2319 19.3096 85.1926L20.373 84.5466C19.6011 79.6141 16.3481 81.6348 14.1187 78.4977L14.9833 76.5267C14.1485 75.4964 13.2806 74.5192 12.3895 73.5387C14.4831 70.7759 25.3486 73.373 29.0886 70.4082C29.1019 68.7386 29.1383 68.6724 28.1577 67.3175C26.8956 65.5717 26.2828 65.1642 26.624 62.9845L29.4099 63.6603L30.2547 62.905C30.3077 61.888 30.417 60.7617 30.2878 59.748C30.0692 58.0453 28.5255 57.1012 27.2534 56.1339L26.6472 55.6768L26.899 54.9049L25.0008 54.3716C27.694 52.4204 31.7122 53.4175 34.8228 53.4043C33.8092 50.1711 29.559 49.5815 27.8066 46.7756C26.7963 45.1557 27.2302 44.0957 27.694 42.4493C28.9197 41.7503 29.9168 41.0944 30.9437 40.1238C30.5362 39.0141 30.2447 38.2753 30.3077 37.0695C34.3524 36.354 36.9562 40.1967 41.0209 40.0807C40.6366 38.4774 40.2556 38.0434 41.0341 36.5428L44.6085 37.0496C46.1025 35.8306 47.2652 34.5022 47.57 32.5179C48.0338 29.4537 46.3476 26.8466 44.5455 24.5675L44.0519 23.9514C45.5029 23.2557 45.9203 22.8416 47.5402 23.1133C48.3783 24.4483 48.9911 25.1505 50.2533 26.098C52.6814 25.1804 51.9824 21.8743 54.1158 21.0031C56.3717 20.0822 59.4161 21.2151 62.0596 19.9662C62.7056 18.7372 63.2985 17.5314 64.3022 16.5542C64.5142 16.3455 64.7362 16.1467 64.9515 15.9413L63.8252 14.5202L62.3809 15.2854C61.0691 14.126 61.0459 14.2651 60.9267 12.5326L62.7486 11.5487L62.2683 10.1375L63.5801 9.45845C67.6414 9.37232 71.7988 10.3628 75.5421 11.9098C77.6258 12.7711 81.1505 14.1989 82.0482 16.3389C81.6341 16.5012 80.9617 16.743 80.6006 16.9716C79.3683 17.7534 79.4212 18.3066 79.1695 19.6383C79.9977 21.4536 80.7861 22.2785 82.3397 23.5141L83.7476 22.7356C85.1025 23.2689 86.3547 23.9746 87.8321 23.6135C88.3456 17.8229 89.5779 11.8369 90.3994 6.04309C90.6876 7.52054 93.2649 24.0507 93.245 24.1534C93.0529 25.1936 92.3307 26.4624 91.8968 27.4429L92.5063 27.8934C94.7125 26.6909 92.9469 24.8358 94.7722 23.322C95.6268 23.9182 96.445 24.5476 97.2732 25.177C98.055 23.7824 97.3494 21.6358 97.5382 19.9662C103.422 16.8126 99.4927 16.8821 102.024 12.622L100.563 11.3732L100.877 10.6609C101.573 11.085 104.207 13.0461 104.833 13.0891C108.086 13.3045 110.501 9.03774 113.502 9.24644C113.671 10.1077 113.807 10.6245 114.327 11.3367L115.38 10.9392C114.807 9.5247 114.539 9.1073 114.748 7.56029L115.993 7.31184L117.706 9.87916L118.448 9.63402C118.825 8.17976 119.23 6.75531 119.71 5.33086C120.942 11.3699 119.799 7.35159 123.496 10.7438C123.589 11.8668 123.639 12.6419 124.215 13.6258C125.663 16.097 125.262 17.1306 124.692 19.7642L125.583 20.3439C127.276 17.3857 125.385 12.0225 126.107 8.61372C126.587 6.34454 128.803 4.78096 129.655 2.67079C129.89 2.08445 128.127 1.4948 127.574 0.332051L127.577 0.345302Z" fill="#040202"/>
</svg>
