<svg width="219" height="223" viewBox="0 0 219 223" fill="none" xmlns="http://www.w3.org/2000/svg">
<path d="M123.518 0.879079C141.111 1.01821 133.747 10.3765 141.976 13.9906C146.627 16.0345 150.324 12.0063 154.465 10.6051C155.448 10.2705 156.489 10.7243 157.363 11.1815C164.624 14.9877 163.78 20.3112 166.042 26.91C168.875 35.1619 178.134 27.9171 184.05 30.8918C192.312 35.0459 196.516 50.1285 198.927 58.5128C209.412 67.6061 211.714 76.5205 214.772 89.4697C215.636 93.1236 216.12 95.9493 218.353 99.0665C220.377 101.892 216.15 117.843 215.901 122.311C215.726 125.495 216.382 128.768 216.908 131.895C211.293 142.111 208.686 150.012 205.393 161.086C204.111 165.393 202.296 170.931 199.543 174.499C195.807 179.346 188.81 183.033 184.202 187.2C177.584 193.189 170.587 203.826 162.382 207.46C159.51 208.732 153.351 206.45 150.566 205.595C147.442 206.864 144.232 208.179 141.32 209.878C135.288 213.403 127.595 220.916 120.808 222.212C116.084 223.113 113.917 217.845 110.37 215.99C105.291 213.334 95.7343 216.388 90.5268 217.594C88.4563 218.246 86.3627 218.892 84.2327 219.32C66.225 222.92 75.9676 209.683 64.9199 204.827C58.8776 202.17 52.5139 206.165 46.0907 201.584C42.1652 198.781 42.195 193.749 41.4993 189.403C38.6239 184.974 32.1278 184.765 27.5331 182.983C23.7666 181.519 20.7488 178.358 19.1752 174.671C17.0386 169.659 16.8663 164.177 18.9599 159.152L19.2415 158.486C16.5847 155.309 12.7917 155.08 9.5387 152.917C8.11757 151.973 6.5308 150.443 5.84839 148.846C4.24175 145.099 1.74069 129.619 2.48604 125.816C2.94318 123.487 5.33824 122.03 4.82478 119.231C4.18875 115.756 1.34979 112.615 0.514999 108.971C-1.05852 102.111 1.15434 94.7136 4.70221 88.8668L5.06992 88.678C15.7168 83.1789 10.4099 74.9271 13.7922 64.6015C16.3794 56.7041 21.2457 53.832 28.2387 50.2544C29.7692 45.769 29.799 40.1143 31.7634 35.9171C34.5493 29.9709 41.0554 30.8057 45.7594 27.7945C53.4448 22.8719 49.1416 17.671 62.9124 12.9869L69.6007 14.0701C77.1204 11.3372 83.8617 6.66299 91.4841 4.01617C100.22 0.985085 106.08 3.93004 113.894 7.70979C116.955 5.00666 119.744 2.56523 123.514 0.869141L123.518 0.879079Z" fill="#5F6367"/>
</svg>
