<svg width="250" height="223" viewBox="0 0 250 223" fill="none" xmlns="http://www.w3.org/2000/svg">
<path d="M1.77824 68.2368C2.92111 66.2956 4.07727 64.1523 5.71373 62.5821C8.61894 59.7961 27.6137 46.5653 31.039 44.6904C36.7865 41.5466 43.1567 39.3868 49.0632 36.4783C48.0595 35.5574 47.1717 34.5735 46.2707 33.5532C45.4823 32.6654 45.1576 30.8766 45.3133 29.7138C46.2143 22.903 60.1706 19.1563 65.2621 15.423C64.8414 14.1476 64.8017 13.3592 64.8746 12.054C70.1682 4.45804 81.3883 13.0014 88.7589 9.96369C90.2397 7.66802 89.3949 5.11395 89.2823 2.42075C90.1966 1.18182 90.3954 0.721355 91.9855 0.370213C99.7106 -1.34575 122.969 5.05101 130.826 8.01585C134.918 9.55955 138.668 11.6399 142.421 13.8693C142.789 15.0652 143.203 16.6222 144.233 17.4172C147.582 20.0243 151.796 17.3145 155.489 16.6586C156.715 17.6226 157.662 18.5667 159.292 18.6661L158.653 16.8474L159.918 15.9066C162.158 16.0789 163.075 16.9932 164.897 18.1559C167.421 19.7791 170.466 19.0271 173.321 18.9443C189.249 18.4673 183.793 24.7846 189.898 30.5188C192.237 30.648 194.433 30.4426 196.272 32.0791L195.977 32.8476C194.42 33.8944 193.012 34.6927 192.064 36.3491C196.828 41.2518 204.437 47.4366 206.544 54.0221C207.187 56.0329 213.925 57.0234 215.501 59.7431L212.875 61.1245L212.828 62.2442C220.037 69.8898 220.596 65.0103 227.361 66.0935C232.661 66.9415 229.014 73.4576 231.578 77.1677C232.131 77.2738 232.277 77.3234 232.89 77.3301C234.96 77.3566 236.981 75.0178 238.452 73.7027C240.131 74.2261 240.019 77.3764 241.436 78.685C242.172 79.364 244.226 80.1988 244.699 80.9409C245.975 82.9285 242.185 86.8639 242.732 89.5141C243.199 91.7766 245.272 93.211 245.766 95.6524C244.855 96.6727 244.103 97.6168 243.374 98.7729L243.838 99.6342C245.587 99.4289 247.23 99.0015 248.844 99.896C249.549 106.213 243.017 108.135 242.321 113.567L243.729 113.726L244.212 114.478C242.357 116.304 239.8 115.916 237.431 116.824C235.596 117.529 235.387 118.394 234.748 120.063C235.55 121.74 239.174 121.336 241.019 122.273C244.113 123.843 247.393 123.847 249.86 126.543C250.361 129.541 246.899 132.675 247.243 134.742C247.409 135.736 248.072 135.5 247.919 136.895C245.551 138.932 241.735 140.44 238.594 140.539C236.617 140.602 235.288 140.075 233.923 138.674C233.638 138.382 233.35 138.091 233.052 137.816L232.615 137.419L231.946 136.799C230.197 137.349 230.226 138.724 228.951 139.956L227.45 138.641C225.92 138.621 225.973 138.717 224.797 139.731C226.324 144.746 231.956 145.7 234.934 149.536C234.606 151.567 234.096 151.945 232.797 153.478C234.745 156.549 238.783 156.986 240.32 160.673C240.631 161.422 240.741 161.939 241.344 162.522C242.808 163.933 244.858 165.308 245.14 167.451C245.037 167.554 244.944 167.666 244.829 167.756C240.234 171.171 234.145 162.628 229.176 162.224C226.98 162.754 225.867 163.463 224.247 165.043C223.531 165.742 223.767 165.921 223.767 166.871C225.234 167.763 226.549 168.7 227.868 169.803C226.493 170.025 224.929 169.266 223.604 168.826L223.435 169.565C225.035 171.817 226.493 172.907 228.968 174.11L229.421 174.325L228.964 175.567C229.471 176.362 229.945 177.154 230.385 177.989C228.918 178.946 227.646 179.814 226.443 181.096C226.447 181.242 226.45 181.391 226.457 181.537C226.622 184.806 227.156 188.546 229.62 190.726C228.941 192.28 228.471 192.227 226.98 192.932C224.34 192.465 223.068 190.643 221.04 189.08C220.116 190.027 219.52 190.57 219.129 191.872C219.553 192.167 219.977 192.462 220.388 192.776C223.207 194.943 225.877 197.355 226.39 201.048L225.728 201.134C224.866 200.038 223.939 198.716 222.876 197.808C221.338 196.5 220.023 196.298 218.075 196.46C216.876 197.408 215.969 197.934 214.544 198.484C213.968 198.262 213.398 198.01 212.808 197.828C212.55 197.749 212.282 197.706 212.017 197.643L212.457 197.537C211.294 199.352 212.133 200.982 210.691 202.797C208.028 202.956 205.206 200.442 202.93 199.094C201.048 197.981 199.253 197.076 197.04 197.63C196.911 198.166 196.795 198.693 196.709 199.239C196.686 199.385 196.666 199.534 196.646 199.68C193.085 195.47 190.246 193.396 185.307 191.001L183.382 190.468C179.874 191.882 177.436 193.572 175.498 196.911C175.508 197.418 175.372 197.951 175.528 198.431C175.653 198.815 204.851 217.794 209.549 222.855C201.393 218.754 193.923 214.034 186.36 208.922C180.51 204.967 173.659 198.955 167.193 196.616C165.918 196.811 165.411 196.901 164.48 197.855C158.182 204.295 139.005 202.655 132.423 207.839C131.154 208.836 129.889 210.088 128.408 210.768C125.493 212.103 116.589 210.026 113.445 208.916C109.824 207.637 107.184 210.387 103.454 208.604C100.691 207.286 98.8129 206.696 95.7818 206.597L94.9735 206.574C93.6948 205.163 95.4008 203.367 94.8741 201.386C92.7805 201.505 92.2173 202.241 90.5676 203.36C88.8318 204.543 86.9999 205.57 84.8234 204.951C82.7994 204.371 82.2959 203.645 81.3021 201.962C82.9286 195.006 91.3262 199.823 95.9574 195.933C96.9776 193.711 96.2091 189.533 95.3345 187.281C94.8343 185.992 93.8472 184.551 92.33 184.588C88.3382 184.68 82.2031 188.596 78.2048 190.014C71.3078 192.465 55.2745 195.384 48.4802 192.667C48.4073 189.557 62.4762 183.534 65.1098 180.586C59.1536 180.877 53.7938 185.257 48.1092 186.834C45.9494 187.433 42.9315 187.966 40.9339 186.863C41.3911 179.224 62.7677 171.98 66.776 165.208C64.868 163.125 61.118 161.372 58.5772 159.994C52.3891 156.642 56.6857 154.012 45.5452 149.122C37.4855 149.921 21.3131 155.317 14.3101 150.888C13.3527 149.036 13.5382 148.947 13.9689 147.012C19.9118 139.164 40.606 135.958 50.6434 131.373C46.274 130.793 41.5236 131.078 37.3596 129.561L37.3232 128.382C39.5029 125.145 43.8889 124.337 47.4102 123.197C50.11 122.326 53.7175 121.687 55.1122 118.964C50.004 115.631 28.8991 129.044 20.7598 124.317C19.7296 123.717 19.8853 123.403 19.5441 122.343C21.8067 115.512 32.0991 111.699 37.6511 108.128L37.2304 107.422C36.3757 107.608 35.5144 107.77 34.6598 107.959C27.2692 109.592 8.45323 112.199 1.82458 108.347C0.681711 106.654 0.688352 106.551 0.84736 104.51C5.29296 96.2984 20.9254 96.5932 28.5148 91.7733L28.1173 91.1306C24.5992 91.0445 21.0248 91.0809 17.5134 90.8325C14.9726 90.6536 14.3365 89.9878 12.7663 88.2055C12.1899 78.897 25.3975 78.0986 28.4386 71.2083C24.1685 69.6248 13.3362 72.8348 8.60236 73.6663L1.76498 68.2368H1.77824Z" fill="#040202"/>
</svg>
