<svg width="239" height="233" viewBox="0 0 239 233" fill="none" xmlns="http://www.w3.org/2000/svg">
<path d="M113.801 0.99079C114.073 1.11667 114.351 1.2293 114.619 1.36512C118.061 3.1109 118.608 10.687 119.618 14.2779L120.373 14.692L120.715 15.5698C122.05 12.7375 120.599 8.70599 121.178 5.53577C121.404 4.30014 121.506 4.39952 122.553 3.69724C123.63 4.15107 124.372 4.4194 125.558 4.40284C125.879 4.39952 126.2 4.38627 126.522 4.37633C129.298 7.72875 127.88 11.1607 129.397 14.745C130.566 17.5044 134.618 21.6718 137.5 22.5794C138.898 23.02 139.213 22.7683 140.438 22.1587L140.856 20.721L139.478 18.8361C138.692 15.1889 140.432 10.7267 141.091 7.06291C142.552 10.2232 143.989 13.3934 145.411 16.5736C145.503 14.7019 145.782 12.9893 146.196 11.1607C147.13 12.2307 147.537 13.4133 147.733 14.8112C148.107 17.4779 146.663 18.3889 145.122 20.3401C145.662 21.3802 146.225 22.321 146.328 23.5103C146.348 23.7157 146.328 23.9244 146.328 24.1298L147.706 23.5004L147.845 24.8917L147.392 24.62L147.955 24.5703C147.842 23.4242 147.564 22.0792 148.071 21.0092C149.439 18.1272 149.856 14.9073 151.552 12.1578C151.903 11.5847 152.311 11.6874 152.937 11.5483C154.828 13.8704 154.762 16.0435 155.253 18.9686L155.829 19.2469C156.915 17.8423 157.787 16.5305 159.387 15.6957C162.371 18.4684 158.694 23.5103 160.337 26.8263C161.484 26.9753 162.626 27.1476 163.763 27.343L163.902 28.3335L162.67 29.4665C161.868 28.9894 161.056 28.5389 160.238 28.095L159.012 29.2114L159.142 30.5729C159.834 31.1062 160.669 31.8781 161.464 32.2292C161.56 32.2723 162.776 32.6996 163.051 32.6201C163.369 32.534 163.998 31.2454 164.359 31.0168C165.217 30.4702 167.778 30.2383 168.874 29.9899L168.308 29.1485C168.169 27.4689 167.976 27.3298 169.023 25.9153C175.592 25.7629 174.022 22.6424 178.931 19.6941C179.68 21.2477 180.495 22.4502 181.578 23.7919C184.146 23.5799 183.069 21.0854 185.487 20.0949C185.918 20.562 186.286 20.9397 186.514 21.5459C188.8 27.6776 185.086 33.3224 182.645 38.8115L181.459 37.4367L182.681 38.7817C186.1 36.9167 190.751 30.7021 193.623 27.7406L194.816 27.9327L194.229 30.6193L194.749 31.1791C195.786 30.2681 196.336 29.6023 197.727 29.3075C194.995 33.7994 189.999 39.3647 189.575 44.7213L190.628 45.1321C191.278 46.6658 191.013 47.7855 190.754 49.4054L190.642 50.0746L191.423 50.6642C195.462 49.8029 197.25 51.8667 200.981 52.3901C203.869 47.3681 206.337 44.1118 210.736 40.3784L211.406 40.4678C208.292 45.5428 208.669 50.8199 204.442 55.7359C203.743 56.5508 203.969 56.0307 203.916 57.273C208 59.678 213.956 65.2068 218.597 65.4818C218.783 65.495 218.965 65.4851 219.16 65.4884L217.491 67.4429C218.809 67.3037 220.101 67.2143 221.43 67.1679L220.916 68.8938L221.264 69.4769C222.457 68.9038 223.563 68.4797 224.835 68.0988L225.63 69.0893C225.252 73.7502 219.283 76.884 216.013 79.9217L216.1 81.0182L218.332 82.1246C218.001 84.6257 213.675 86.1495 212.906 88.7003C212.711 89.3462 214.857 90.3731 215.381 91.3934C214.344 92.5628 213.661 93.4175 213.158 94.9049C215.556 95.0639 217.68 93.1492 220.048 92.5429L213.652 100.924C216.398 102.372 216.739 103.462 218.183 106.102C218.601 106.347 218.948 106.777 219.425 106.844C220.28 106.96 229.685 102.895 232.053 102.527C233.869 102.246 235.031 102.272 236.539 103.296C233.385 110.117 221.98 107.622 216.371 108.941C214.023 109.494 210.879 112.101 208.822 113.446C209.696 114.33 210.773 113.568 211.694 114.036C215.023 115.715 217.382 119.76 221.098 121.578C223.543 122.774 226.475 124.076 228.31 126.12C227.048 127.15 225.504 126.849 223.904 126.885C227.797 130.857 235.929 130.43 238.192 136.28L237.579 137.237L235.764 137.423C232.852 136.429 231.533 134.438 229.31 132.507C227.389 132.096 226.051 132.537 224.245 133.12L223.507 133.362C222.274 132.616 221.052 131.798 219.684 131.318C218.306 130.834 217.647 130.632 216.626 129.519C216.626 129.519 215.831 128.608 215.772 128.565C215.159 128.068 214.625 128.177 213.89 128.234C211.601 128.409 209.534 127.654 207.533 128.89L207.583 129.883C209.815 132.487 214.006 133.968 215.821 136.293C218.763 140.08 218.18 144.893 223.566 146.993C224.653 147.414 225.382 147.745 226.322 148.431L226.478 150.525L225.478 151.538L221.983 151.296L221.555 152.171C222.632 153.195 223.556 154.049 224.262 155.388L223.106 155.961C221.387 155.079 219.863 154.424 217.981 154.013C216.497 153.688 216.553 153.552 215.311 154.354C216.825 154.907 217.981 155.202 218.932 156.603C218.7 156.968 218.544 157.18 218.379 157.557C216.613 161.413 217.087 164.302 218.273 168.062C218.69 169.387 219.078 169.758 218.438 170.993L215.089 170.977C215.904 174.058 220.174 175.565 221.194 179.017C221.698 180.716 221.542 181.919 220.727 183.452L219.144 183.79C212.933 181.256 209.246 174.223 205.204 169.056L204.475 169.649C204.561 170.95 204.727 172.375 204.648 173.677C204.532 175.535 201.882 178.146 200.947 179.868C199.414 182.704 199.536 186.235 197.072 188.305C195.939 188.206 194.832 188.103 193.713 187.901L192.821 187.736C192.5 188.249 192.212 188.683 192.116 189.296C191.248 194.875 196.194 196.14 198.47 200.022C199.132 201.149 199.053 201.434 198.691 202.58L197.31 202.368C196.611 203.534 196.893 204.008 197.032 205.299C198.357 206.3 199.702 207.247 201.08 208.172L201.007 209.772C199.106 210.063 197.718 207.701 195.488 207.3C194.749 207.883 193.944 208.43 193.431 209.232C193.355 209.351 193.302 209.483 193.236 209.609C193.116 209.48 192.984 209.361 192.878 209.218C191.576 207.512 191.172 205.697 191.354 203.603C192.073 195.458 183.768 192.754 179.458 187.139C179.342 186.987 179.233 186.831 179.12 186.679L178.295 187.517C176.934 192.884 177.789 200.125 177.908 205.7C177.206 202.421 176.629 199.072 175.4 195.941L174.125 197.952C173.86 196.918 173.651 196.133 173.681 195.06C173.717 193.662 173.588 192.307 173.459 190.916C172.823 190.976 172.372 190.893 171.852 191.294C166.535 195.418 165.303 210.673 164.339 217.278L163.027 215.582L162.633 216.003C162.6 221.926 160.53 226.699 158.797 232.311C158.264 227.696 159.009 223.426 158.658 218.961C158.406 215.767 156.985 212.133 156.081 209.039L155.229 208.933C154.766 212.346 154.607 216.357 153.03 219.425C151.887 217.652 153.142 211.295 153.454 209.063L152.433 208.529C149.508 209.546 151.065 210.53 149.266 212.458C148.756 211.431 148.501 210.371 148.19 209.271C146.116 207.754 145.232 208.99 143.075 207.993L141.899 204.746C138.219 203.938 138.547 211.951 135.423 213.488C133.733 214.32 132.518 214.469 130.745 213.902C129.808 211.673 133.339 203.451 134.022 200.586L133.127 200.128L132.793 198.525L133.723 198.893L132.657 198.621C128.476 203.391 127.645 211.762 123.491 216.168C122.918 216.775 122.513 217.013 121.695 217.089L120.907 214.966L119.996 214.691C119.111 216.228 118.18 217.712 117.193 219.186L115.944 219.299L115.444 218.004C116.703 215.102 117.057 212.707 116.743 209.56C116.726 209.401 116.706 209.242 116.69 209.083L117.816 209.642L116.875 209.55L116.623 209.086C111.482 215.088 107.143 222.227 102.687 228.763L102.051 228.839L101.362 228.216L101.481 225.802L102.041 225.563L100.594 225.245C99.8912 225.729 100.252 225.553 99.285 225.835C99.0366 225.908 98.7848 225.974 98.5331 226.043C99.1591 222.77 101.554 220.773 100.468 217.324L99.0034 216.847C96.9694 217.566 96.6647 217.898 95.2634 219.56L94.4915 219.173L94.9851 217.016C93.2261 216.881 91.6327 217.053 89.8836 217.278L89.6252 216.665L90.2414 215.569C90.8079 215.615 91.1392 215.665 91.7321 215.605C93.4348 215.433 93.8853 214.568 94.8162 213.336L94.4087 212.031L92.4244 211.408C90.1221 211.58 89.0489 212.846 87.4423 214.346L86.7366 215.009L85.0074 213.946C86.1635 211.885 87.3627 210.056 87.6443 207.665C86.5809 206.691 86.0874 206.77 84.6927 206.558C81.1482 207.704 78.6934 210.62 76.0267 213.107C74.3174 211.965 75.6359 210.252 74.228 208.765C72.2901 210.149 68.6296 213.276 66.2577 213.124L66.1418 211.584C70.6503 200.476 81.0984 195.037 89.3635 187.159C76.3216 193.506 71.3791 195.696 59.1984 204.402L58.8108 203.931C59.3177 203.312 59.6324 202.629 60.0067 201.924L58.9632 201.029C60.7819 200.519 61.5074 199.721 62.6602 198.283L61.1628 197.193L59.6688 198.359C57.5653 198.548 55.5611 198.942 53.494 199.366C54.3918 196.922 56.0149 195.497 55.8758 192.814C51.0592 189.743 50.2608 196.243 45.8219 196.793L45.3183 196.137L47.0641 194.282C44.8413 190.843 50.6385 188.991 50.1449 185.506C45.9776 186.397 42.4297 188.017 38.6466 189.919C42.0653 186.805 47.5577 183.333 49.6182 179.209C46.3784 177.947 38.8587 183.429 34.7874 183.399C36.6359 180.951 40.1936 179.179 42.6285 177.231C44.4604 175.764 45.4972 174.902 45.7921 172.521L46.0173 172.998C43.7514 172.292 39.7928 175.005 37.1758 175.128C34.5654 175.25 32.6938 176.787 30.1563 175.555C30.7459 175.058 31.0905 175.287 31.8325 175.336C33.6776 173.488 36.4702 171.215 37.7058 168.946C35.9866 168.208 33.9261 169.963 31.8855 170.066L32.4486 169.198C34.37 168.277 36.0263 167.638 38.1365 167.303C38.322 167.273 38.5108 167.25 38.6963 167.22L38.226 166.873L39.5444 167.996C39.9452 166.67 41.1543 166.021 42.1978 165.137L41.797 164.219C35.3936 161.503 28.0627 163.192 21.3545 162.152L23.1533 161.307L22.4543 161.238L23.1831 160.923L21.9475 160.353L21.5699 159.28L22.8022 158.081L24.8925 158.074C26.1513 158.077 26.89 157.985 28.0826 157.564C30.0337 156.872 32.3261 156.756 33.6809 155.195L31.4449 154.579L31.2958 153.9L33.2669 152.9L32.7998 153.161L33.2536 152.744L25.8134 154.192L25.6179 155.265L26.519 154.079L24.3724 154.394C26.4726 152.042 30.9248 149.985 33.6578 148.242C27.9467 150.693 23.5873 152.287 17.2932 151.975C14.5967 151.843 11.9168 151.525 10.065 149.464L10.6977 147.802C14.6199 144.333 19.0125 142.697 23.9914 141.322C19.9698 141.054 12.6323 141.832 9.13741 140.186L10.9726 140.855L10.5784 139.255C12.5495 138.804 14.6696 138.549 16.3127 137.314L14.9081 135.637C17.9392 130.977 29.0167 131.473 32.8892 127.617C31.6569 127.372 30.514 127.18 29.2519 127.306C20.3276 128.187 18.3897 123.907 8.72001 128.509C6.92455 127.551 5.19533 126.773 3.86363 125.186C4.0127 125.09 4.15515 124.971 4.31747 124.894C7.2558 123.52 14.0899 124.729 17.6013 124.517C21.5135 124.278 25.4755 123.487 29.3347 122.824C31.6437 122.427 36.1754 120.919 38.2127 121.691L37.4905 120.558L38.2491 121.539C39.9386 121.058 41.5187 119.819 43.0094 118.892L42.5689 118.087L40.7436 118.372C39.6007 117.888 37.7555 116.957 36.5067 117.202C35.0358 117.494 33.5915 118.806 32.1936 119.409C29.1095 120.74 23.4548 119.717 20.0725 119.485C21.9342 117.974 23.9848 116.58 25.2237 114.493C23.6171 115.155 22.1462 115.732 20.4336 116.043L22.5438 113.973L22.3384 113.045C20.0659 112.392 17.8828 112.184 15.5441 111.992C17.2733 110.723 22.0866 110.203 24.4121 109.414C19.8771 109.209 14.3714 109.53 10.1974 107.702L10.224 106.724C14.3847 104.041 20.0692 103.693 24.697 101.928C27.1384 100.997 29.5169 99.8706 30.6333 97.4126C26.6316 95.1301 17.4754 97.2006 11.8803 94.9711L13.8646 95.2858C9.94571 92.851 5.28146 92.7715 0.802734 92.3276C4.24459 91.6883 7.7196 91.8738 11.1383 91.2941C14.0799 90.7939 16.8857 89.969 18.658 87.4978L18.2837 85.8646C16.2133 83.4132 12.8807 82.6083 9.96226 81.535L9.09435 81.5615C12.576 81.4588 16.0543 81.313 19.5326 81.1242L19.4597 79.6004L22.0502 78.9511L21.7686 77.192C23.998 76.3539 27.0126 77.2947 29.3215 77.6724L29.8615 76.99L28.2482 73.9224C28.5596 72.6338 28.9405 71.4446 29.3977 70.199C27.6022 67.9994 24.273 68.7414 22.0535 67.2176C20.9471 66.459 20.9371 65.8263 20.6622 64.6172C21.709 62.878 22.6299 61.8875 24.3094 60.7447C24.0014 62.1923 23.4978 63.6565 23.9086 65.1174C25.7438 63.63 26.1943 63.461 28.5331 63.0867L29.0001 62.3546L26.9894 59.4958C26.7608 56.796 29.5997 56.3024 29.9939 53.8808C30.5173 50.6543 27.8474 49.2033 29.9774 45.9934C31.6536 45.1089 32.4553 44.337 34.3634 44.5822C35.5361 47.0368 36.6326 49.5445 39.2562 50.5648C40.9788 49.6373 41.6314 48.2294 42.5987 46.5797L42.6218 45.6654C43.1022 44.9167 43.5395 44.1648 43.9734 43.3896C47.4583 42.9159 47.2662 48.3619 49.8302 49.0576C49.9461 48.087 49.9395 47.4443 49.7341 46.4704C48.9159 42.5283 51.1089 39.9014 50.2973 37.0525C49.7573 35.1576 48.7138 33.1767 49.277 31.2818C50.3768 33.0806 52.4572 35.8765 54.4183 36.6715L53.875 33.8624C54.2195 33.5642 54.5706 33.2727 54.8953 32.9514C58.0986 29.7911 54.9516 25.6006 54.9019 21.685L55.7135 21.0125C59.5727 23.3778 63.3856 35.2703 65.5753 39.5668C65.7078 39.4078 65.8403 39.2455 65.9761 39.0864C74.6122 29.112 66.5625 25.8921 67.4006 18.061C70.1865 19.6775 70.5973 23.6262 73.592 24.9414C73.1911 22.6755 73.8106 20.4825 74.2412 18.2531C73.7145 17.2295 73.4064 16.6663 73.4893 15.5003C75.5531 16.1297 76.2355 17.7893 77.4578 19.4953C80.585 16.3616 82.0061 11.9358 85.3221 8.92131C85.7163 9.15651 86.0675 9.40496 86.5081 9.54078L87.3859 8.21571L89.4133 7.90764C91.9441 12.1081 94.4816 16.2721 97.2643 20.3103L96.3201 23.1525C96.8303 24.3981 96.9164 24.5737 97.9964 25.3654C97.9699 22.5596 98.1289 19.8365 99.7819 17.4779C100.905 15.8713 102.044 14.8311 102.203 12.8568L99.613 11.7636V10.1735L99.1128 10.9155C99.232 10.5611 99.3579 10.2066 99.4904 9.85548C100.292 7.76188 101.398 5.11175 103.545 4.18089C105.96 5.28732 106.868 8.26872 108.713 10.2663L109.955 9.19626C111.492 10.8327 111.823 12.5984 112.387 14.7019L113.397 13.7677C114.106 10.9685 112.999 8.82856 112.605 6.0923C112.261 3.7138 112.433 2.83594 113.771 0.977539L113.801 0.99079ZM164.385 183.85C164.495 183.936 164.607 184.016 164.71 184.105C166.585 185.751 166.827 188.093 167.536 190.353C167.745 191.012 168.033 191.34 168.559 191.771C170.458 191.383 171.561 190.813 172.7 189.177C173.661 187.795 173.737 185.884 173.263 184.31C172.634 182.227 169.742 178.642 169.745 176.777C169.752 173.554 169.616 172.332 167.277 169.967C166.675 169.357 166.844 169.526 166.095 169.029C164.985 172.925 169.007 175.946 168.073 178.921C167.304 178.258 166.582 177.622 165.717 177.085C163.494 180.845 160.728 183.062 161.851 187.739C162.034 188.491 162.332 188.965 162.736 189.617C164.236 188.19 164.084 185.877 164.385 183.85Z" fill="#040202"/>
</svg>
