<svg width="259" height="221" viewBox="0 0 259 221" fill="none" xmlns="http://www.w3.org/2000/svg">
<path d="M169.877 0.00662533C173.822 0.443897 178.118 -0.377644 181.683 1.66958C185.482 3.85594 191.151 2.82902 193.917 6.2775C191.969 8.74875 185.847 8.61956 182.786 9.40797C177.804 10.69 170.36 14.5062 167.737 19.0346L168.071 20.2404C171.367 21.5986 200.134 22.4168 205.097 21.8835C198.925 24.5899 189.259 25.799 184.055 29.6119L184.883 30.3606C192.486 31.8049 200.539 28.416 208.085 27.4454C211.431 27.0148 218.937 26.445 221.571 28.7705C222.455 29.5523 222.207 29.708 222.26 30.7912C218.198 37.1118 205.617 36.3234 200.161 41.3454L200.622 42.1934C201.589 41.9284 202.397 41.6203 203.387 41.9384C208.277 43.5119 213.22 41.299 218.109 42.1603C219.709 42.4419 219.891 42.75 220.865 44.0121C220.491 46.2283 220.401 46.6854 218.732 48.3351C218.616 48.4511 218.493 48.5637 218.374 48.6763C222.459 56.2027 214.475 56.1298 212.772 62.3709L213.64 63.4972C222.3 65.8094 230.266 58.1704 238.369 59.1742C240.36 59.4193 240.804 60.1216 241.884 61.5924C242.387 64.6434 242.166 68.168 241.039 71.0865C238.816 76.8572 227.931 80.4912 222.724 82.8995C230.691 84.5161 237.604 83.89 245.601 82.8266L246.22 83.3666C240.552 86.9608 231.237 89.7136 227.444 95.2922C227.729 100.523 246.426 97.886 250.248 101.53C249.51 103.508 247.287 104.303 245.511 105.406V106.254C248.228 107.055 251.189 106.827 253.432 108.543C253.618 114.602 244.677 116.884 243.961 122.009C243.126 127.938 255.217 133.239 258.129 137.77C261.011 142.269 255.81 142.435 255.131 145.648L256.947 146.493C258.666 150.773 243.368 159.561 241.417 164.268C242.262 164.53 243.126 164.808 243.891 165.246C247.065 167.035 248.811 173.968 249.831 177.211C241.795 181.663 221.756 192.509 215.784 198.117L216.85 199.654C215.684 202.967 206.69 205.19 203.53 207.128L203.752 208.019C205.61 208.095 207.22 208.102 209.036 207.641C209.178 207.605 209.321 207.565 209.463 207.525L210.102 208.463C209.499 209.245 209.817 209.003 208.906 209.467C208.688 209.579 208.463 209.675 208.237 209.781L208.005 210.258L206.713 210.324C206.104 211.626 206.478 212.425 206.713 213.819L205.72 215.178C200.621 217.669 198.998 216.93 193.883 215.522C190.031 214.462 191.363 217.321 188.779 218.232C182.514 220.438 170.526 215.062 164.01 217.569C162.516 218.142 162.754 219.656 161.399 220.385C158.975 221.69 149.272 220.153 146.449 219.398L146.877 217.284C135.65 213.419 122.837 217.112 111.428 217.245C100.132 217.377 100.715 212.898 93.6919 206.363C83.5949 196.968 71.7521 208.075 60.5123 207.986C58.2563 207.966 56.9478 207.486 55.3577 205.978C55.7685 204.242 57.1565 203.375 58.4352 202.175C58.73 200.131 56.2687 197.114 55.2054 195.272L62.0526 188.113C65.3785 185.493 70.172 182.177 72.1496 178.384C72.4643 177.784 72.1066 177.38 71.8946 176.77C63.8879 171.596 41.9017 187.298 34.4118 186.619C32.5732 186.453 30.5624 186.235 28.7902 185.708C27.0444 185.191 25.9413 184.751 25.0667 183.161C29.4461 178.033 41.7891 178.917 44.9262 172.163C43.8098 170.785 43.7237 170.543 41.9514 170.013L41.6201 169.145C44.2603 166.266 49.1299 165.703 52.3896 163.454C54.0691 162.294 54.5461 160.909 54.8608 158.972C54.1254 157.885 53.9863 157.852 52.6017 157.709C40.951 156.51 19.9421 161.128 8.19867 156.815L7.93364 155.964C13.8269 151.763 26.6833 151.939 33.9944 150.415C39.1754 149.335 44.2868 147.848 49.3784 146.413C43.833 144.445 35.8097 142.587 30.0059 143.796C26.7429 144.475 23.5827 147.155 20.1044 146.609C18.67 146.383 16.8215 145.545 16.0198 144.28C15.4666 143.405 15.5594 142.571 15.9072 141.623C17.388 137.598 24.3909 133.924 27.9388 132.056C23.311 130.267 11.7631 127.75 9.32494 123.98C10.8057 121.704 13.3332 121.558 15.2645 119.663C12.6111 116.824 6.00894 116.593 2.50745 114.357C0.755048 113.237 0.473539 112.713 0.00976562 110.742C3.10048 105.75 15.1983 105.293 20.4787 103.902C22.1184 102.07 21.4923 99.0288 21.5586 96.5775C24.1955 91.6714 30.7911 92.6155 35.124 90.4722C39.1191 88.4979 44.1245 89.3857 48.4409 88.4151C49.9449 88.0772 50.4385 88.1832 51.26 86.8979C47.8745 84.2378 31.8709 85.013 26.458 84.3802C23.8642 81.9057 20.8265 79.123 18.9846 76.0224C18.2128 74.7271 17.7755 73.8956 18.0803 72.4348C20.058 70.4273 52.2968 70.5631 58.0112 68.7577C60.0982 68.0985 62.4534 66.8562 63.5367 64.8918C59.1507 64.4976 52.3366 63.5104 49.2426 60.158C50.127 57.3191 63.9144 57.0375 67.4092 54.6126C67.5749 54.1058 67.9128 53.6287 67.9095 53.0954C67.9028 50.1571 41.6135 41.723 38.3307 32.4343C37.8039 30.9403 37.8569 29.2475 38.652 27.8628C39.2913 26.7465 39.9141 26.816 41.0669 26.4351C44.9129 27.3129 45.9167 30.3606 49.1896 32.0534C51.8165 33.4149 65.5972 34.8857 68.6217 33.8919L68.9231 33.0505L66.4618 29.5457C68.6813 25.8487 79.1692 30.1221 82.7303 27.6707C80.6897 24.5204 75.4458 23.5299 74.134 20.2006C78.9142 17.3087 95.1561 21.7609 102.099 20.9095C103.931 19.8561 104.866 18.9981 105.962 17.1861C105.051 10.9782 89.985 13.5985 86.1622 9.81543L86.6393 8.7885C98.3628 4.87624 127.961 6.2775 141.497 5.50896C151.415 4.94581 160.432 2.73626 169.873 0L169.877 0.00662533Z" fill="#040202"/>
</svg>
