<svg width="64" height="63" viewBox="0 0 64 63" fill="none" xmlns="http://www.w3.org/2000/svg">
<g clip-path="url(#clip0_5960_34754)">
<path d="M31.8907 5.47308C27.1717 5.47395 22.5415 6.75578 18.494 9.18185C14.4464 11.6079 11.1333 15.0872 8.90815 19.2486C6.68297 23.4099 5.62915 28.0973 5.8591 32.8106C6.08905 37.524 7.59415 42.0865 10.2138 46.0115C12.8335 49.9365 16.4696 53.0768 20.7341 55.0973C24.9985 57.1179 29.7315 57.9429 34.4282 57.4844C39.1248 57.0259 43.6089 55.3011 47.4021 52.4939C51.1953 49.6868 54.1553 45.9026 55.9664 41.545C56.8553 39.4075 54.7256 37.2596 52.5829 38.1302C48.9105 39.6178 44.8328 39.7713 41.0589 38.564C37.2851 37.3568 34.0536 34.8651 31.9265 31.5222C29.7993 28.1793 28.911 24.1967 29.4159 20.2667C29.9209 16.3367 31.7872 12.708 34.6903 10.0114L34.891 9.80286C36.3273 8.16062 35.1856 5.49394 32.9151 5.49394H32.2217L32.0445 5.4783L31.888 5.47308H31.8907Z" fill="#DADFE2"/>
</g>
<defs>
<clipPath id="clip0_5960_34754">
<rect width="62.5616" height="62.5616" fill="white" transform="translate(0.617188 0.280518)"/>
</clipPath>
</defs>
</svg>
