<svg width="64" height="63" viewBox="0 0 64 63" fill="none" xmlns="http://www.w3.org/2000/svg">
<g clip-path="url(#clip0_5960_34780)">
<path d="M31.7511 21.1346C33.7912 21.1346 35.7864 21.7331 37.4897 22.8559C39.193 23.9786 40.5295 25.5764 41.3337 27.4512C42.1379 29.3261 42.3745 31.3956 42.0141 33.4036C41.6537 35.4116 40.7122 37.2697 39.3062 38.7478C37.9002 40.226 36.0914 41.2592 34.104 41.7196C32.1166 42.1799 30.0378 42.0471 28.125 41.3377C26.2123 40.6282 24.5498 39.3733 23.3432 37.7282C22.1367 36.0832 21.4393 34.1204 21.3373 32.0829L21.3242 31.5616L21.3373 31.0402C21.471 28.3684 22.6266 25.8503 24.5649 24.0065C26.5032 22.1628 29.076 21.1346 31.7511 21.1346Z" fill="white"/>
<path d="M31.7513 5.49426C32.3897 5.49435 33.006 5.72875 33.4831 6.15302C33.9602 6.57729 34.265 7.16192 34.3397 7.79601L34.358 8.10099V13.3145C34.3573 13.9789 34.1029 14.6179 33.6468 15.101C33.1907 15.5842 32.5673 15.8749 31.904 15.9138C31.2408 15.9528 30.5877 15.737 30.0782 15.3105C29.5687 14.8841 29.2413 14.2792 29.1628 13.6194L29.1445 13.3145V8.10099C29.1445 7.40965 29.4192 6.74661 29.908 6.25776C30.3969 5.7689 31.0599 5.49426 31.7513 5.49426Z" fill="white"/>
<path d="M46.59 13.0355C47.0591 12.568 47.6886 12.2966 48.3506 12.2764C49.0126 12.2561 49.6574 12.4887 50.1542 12.9267C50.6509 13.3647 50.9623 13.9754 51.0251 14.6347C51.0879 15.294 50.8974 15.9525 50.4923 16.4764L50.276 16.7214L46.6265 20.3709C46.1574 20.8384 45.528 21.1098 44.866 21.13C44.204 21.1502 43.5592 20.9177 43.0624 20.4797C42.5656 20.0417 42.2542 19.431 42.1914 18.7717C42.1286 18.1124 42.3191 17.4539 42.7243 16.93L42.9406 16.6849L46.59 13.0355Z" fill="white"/>
<path d="M55.2079 28.9548C55.8723 28.9556 56.5114 29.21 56.9945 29.6661C57.4776 30.1222 57.7684 30.7455 57.8073 31.4088C57.8462 32.0721 57.6304 32.7252 57.204 33.2347C56.7776 33.7441 56.1727 34.0716 55.5129 34.1501L55.2079 34.1683H49.9945C49.3301 34.1676 48.691 33.9132 48.2079 33.4571C47.7248 33.001 47.434 32.3776 47.3951 31.7143C47.3562 31.0511 47.572 30.398 47.9984 29.8885C48.4248 29.379 49.0297 29.0516 49.6895 28.9731L49.9945 28.9548H55.2079Z" fill="white"/>
<path d="M42.9429 42.7527C43.3918 42.3038 43.989 42.0342 44.6225 41.9944C45.256 41.9546 45.8822 42.1472 46.3838 42.5363L46.6288 42.7527L50.2782 46.4021C50.7458 46.8712 51.0172 47.5007 51.0374 48.1626C51.0576 48.8246 50.8251 49.4695 50.3871 49.9662C49.9491 50.463 49.3384 50.7744 48.6791 50.8372C48.0198 50.9 47.3613 50.7095 46.8374 50.3044L46.5923 50.088L42.9429 46.4386C42.4542 45.9498 42.1797 45.2868 42.1797 44.5956C42.1797 43.9044 42.4542 43.2415 42.9429 42.7527Z" fill="white"/>
<path d="M31.7513 47.2019C32.3897 47.202 33.006 47.4364 33.4831 47.8607C33.9602 48.2849 34.265 48.8696 34.3397 49.5036L34.358 49.8086V55.0221C34.3573 55.6865 34.1029 56.3255 33.6468 56.8087C33.1907 57.2918 32.5673 57.5825 31.904 57.6215C31.2408 57.6604 30.5877 57.4446 30.0782 57.0182C29.5687 56.5917 29.2413 55.9868 29.1628 55.3271L29.1445 55.0221V49.8086C29.1445 49.1173 29.4192 48.4543 29.908 47.9654C30.3969 47.4765 31.0599 47.2019 31.7513 47.2019Z" fill="white"/>
<path d="M16.8791 42.7519C17.3482 42.2844 17.9777 42.013 18.6396 41.9928C19.3016 41.9726 19.9465 42.2051 20.4432 42.6431C20.94 43.0811 21.2514 43.6918 21.3142 44.3511C21.377 45.0104 21.1865 45.6689 20.7814 46.1928L20.565 46.4379L16.9156 50.0873C16.4465 50.5548 15.817 50.8262 15.155 50.8464C14.4931 50.8667 13.8482 50.6341 13.3515 50.1961C12.8547 49.7581 12.5433 49.1474 12.4805 48.4881C12.4177 47.8288 12.6082 47.1703 13.0133 46.6464L13.2297 46.4014L16.8791 42.7519Z" fill="white"/>
<path d="M16.1103 28.9548C16.7747 28.9556 17.4137 29.21 17.8968 29.6661C18.38 30.1222 18.6707 30.7455 18.7096 31.4088C18.7486 32.0721 18.5328 32.7252 18.1063 33.2347C17.6799 33.7441 17.075 34.0716 16.4153 34.1501L16.1103 34.1683H10.8968C10.2324 34.1676 9.59336 33.9132 9.11024 33.4571C8.62712 33.001 8.33639 32.3776 8.29745 31.7143C8.25852 31.0511 8.47431 30.398 8.90075 29.8885C9.32718 29.379 9.93207 29.0516 10.5918 28.9731L10.8968 28.9548H16.1103Z" fill="white"/>
<path d="M13.232 13.0353C13.6808 12.5865 14.278 12.3169 14.9115 12.2771C15.545 12.2372 16.1713 12.4299 16.6729 12.819L16.9179 13.0353L20.5673 16.6847C21.0348 17.1538 21.3062 17.7833 21.3265 18.4453C21.3467 19.1073 21.1142 19.7521 20.6761 20.2489C20.2381 20.7456 19.6274 21.057 18.9681 21.1198C18.3088 21.1826 17.6504 20.9921 17.1264 20.587L16.8814 20.3707L13.232 16.7212C12.7433 16.2324 12.4688 15.5695 12.4688 14.8783C12.4688 14.1871 12.7433 13.5242 13.232 13.0353Z" fill="white"/>
</g>
<defs>
<clipPath id="clip0_5960_34780">
<rect width="62.5616" height="62.5616" fill="white" transform="translate(0.472656 0.280579)"/>
</clipPath>
</defs>
</svg>
