<svg width="64" height="63" viewBox="0 0 64 63" fill="none" xmlns="http://www.w3.org/2000/svg">
<g clip-path="url(#clip0_5960_35058)">
<path d="M44.9359 8.81748C48.8675 11.0875 52.138 14.345 54.4237 18.2674C56.7094 22.1899 57.9311 26.6413 57.9678 31.181C58.0044 35.7206 56.8549 40.1912 54.6328 44.1501C52.4107 48.1089 49.1933 51.4188 45.2989 53.752C41.4045 56.0853 36.9683 57.361 32.4294 57.4528C27.8905 57.5447 23.4063 56.4495 19.4207 54.2758C15.4351 52.102 12.0864 48.925 9.70597 45.0593C7.32555 41.1936 5.99601 36.7732 5.84897 32.2358L5.83594 31.3912L5.84897 30.5467C5.99495 26.0449 7.30492 21.6578 9.65116 17.8131C11.9974 13.9683 15.2998 10.7971 19.2365 8.60864C23.1732 6.42016 27.6098 5.28909 32.1138 5.32569C36.6177 5.36229 41.0353 6.56532 44.9359 8.81748ZM39.7226 33.9979H24.0826C23.3913 33.9979 22.7283 34.2725 22.2394 34.7614C21.7506 35.2502 21.4759 35.9132 21.4759 36.6045V36.7349C21.476 39.3935 22.498 41.9505 24.3306 43.8767C26.1631 45.8028 28.666 46.9509 31.3213 47.0834L31.913 47.0964C34.5767 47.0771 37.1334 46.0457 39.0648 44.2112C40.9961 42.3766 42.1576 39.8763 42.3136 37.2171L42.3293 36.6801C42.3394 36.3315 42.2794 35.9844 42.153 35.6594C42.0265 35.3343 41.8361 35.038 41.593 34.7879C41.35 34.5378 41.0592 34.339 40.7379 34.2033C40.4166 34.0676 40.0714 33.9977 39.7226 33.9979ZM24.1087 20.9645L23.7776 20.9828C23.1179 21.0613 22.513 21.3887 22.0866 21.8982C21.6602 22.4077 21.4444 23.0607 21.4833 23.724C21.5222 24.3872 21.813 25.0106 22.2961 25.4667C22.7792 25.9227 23.4182 26.1771 24.0826 26.1779L24.4137 26.1596C25.0734 26.0812 25.6783 25.7537 26.1047 25.2443C26.5311 24.7348 26.7469 24.0817 26.708 23.4185C26.669 22.7552 26.3783 22.1319 25.8952 21.6758C25.4121 21.2197 24.7731 20.9653 24.1087 20.9645ZM39.7487 20.9645L39.4176 20.9828C38.7579 21.0613 38.153 21.3887 37.7266 21.8982C37.3002 22.4077 37.0844 23.0607 37.1233 23.724C37.1622 24.3872 37.453 25.0106 37.9361 25.4667C38.4192 25.9227 39.0582 26.1771 39.7226 26.1779L40.0536 26.1596C40.7134 26.0812 41.3183 25.7537 41.7447 25.2443C42.1711 24.7348 42.3869 24.0817 42.348 23.4185C42.309 22.7552 42.0183 22.1319 41.5352 21.6758C41.0521 21.2197 40.4131 20.9653 39.7487 20.9645Z" fill="#DADFE2"/>
</g>
<defs>
<clipPath id="clip0_5960_35058">
<rect width="62.56" height="62.56" fill="white" transform="translate(0.617188 0.111328)"/>
</clipPath>
</defs>
</svg>
