<svg width="64" height="63" viewBox="0 0 64 63" fill="none" xmlns="http://www.w3.org/2000/svg">
<g clip-path="url(#clip0_5960_35054)">
<path d="M44.7914 8.81773C48.723 11.0878 51.9935 14.3452 54.2792 18.2677C56.5649 22.1901 57.7866 26.6415 57.8232 31.1812C57.8599 35.7209 56.7103 40.1914 54.4883 44.1503C52.2662 48.1092 49.0487 51.419 45.1544 53.7523C41.26 56.0855 36.8238 57.3612 32.2849 57.4531C27.746 57.5449 23.2618 56.4498 19.2762 54.276C15.2906 52.1023 11.9419 48.9253 9.56144 45.0596C7.18102 41.1938 5.85148 36.7735 5.70444 32.236L5.69141 31.3915L5.70444 30.5469C5.85042 26.0452 7.16039 21.6581 9.50663 17.8133C11.8529 13.9686 15.1553 10.7974 19.092 8.60889C23.0287 6.42041 27.4653 5.28933 31.9692 5.32593C36.4732 5.36253 40.8908 6.56556 44.7914 8.81773ZM31.7581 34.5195C30.1978 34.5193 28.6531 34.8305 27.2146 35.4348C25.776 36.039 24.4725 36.9242 23.3802 38.0385C23.1349 38.2817 22.9404 38.5712 22.8079 38.8902C22.6754 39.2093 22.6077 39.5515 22.6087 39.8969C22.6096 40.2423 22.6792 40.5842 22.8135 40.9025C22.9477 41.2208 23.1438 41.5092 23.3905 41.7511C23.6372 41.9929 23.9294 42.1833 24.2503 42.3112C24.5712 42.4391 24.9144 42.5019 25.2598 42.496C25.6052 42.4901 25.9459 42.4156 26.2623 42.2769C26.5787 42.1381 26.8643 41.9379 27.1026 41.6878C27.7093 41.0683 28.4337 40.5761 29.2331 40.2401C30.0325 39.9041 30.8909 39.7311 31.7581 39.7311C32.6252 39.7311 33.4837 39.9041 34.2831 40.2401C35.0825 40.5761 35.8068 41.0683 36.4136 41.6878C36.9 42.1699 37.5566 42.4413 38.2415 42.4432C38.9264 42.4451 39.5845 42.1774 40.0735 41.6979C40.5626 41.2184 40.8433 40.5657 40.855 39.881C40.8666 39.1962 40.6083 38.5343 40.1359 38.0385C39.0437 36.9242 37.7401 36.039 36.3016 35.4348C34.863 34.8305 33.3184 34.5193 31.7581 34.5195ZM23.9641 23.5715L23.6331 23.5897C22.9995 23.6651 22.4156 23.9702 21.992 24.4472C21.5683 24.9243 21.3343 25.5401 21.3343 26.1781C21.3343 26.8161 21.5683 27.432 21.992 27.909C22.4156 28.3861 22.9995 28.6912 23.6331 28.7665L23.9381 28.7848L24.2691 28.7665C24.9027 28.6912 25.4866 28.3861 25.9102 27.909C26.3339 27.432 26.5679 26.8161 26.5679 26.1781C26.5679 25.5401 26.3339 24.9243 25.9102 24.4472C25.4866 23.9702 24.9027 23.6651 24.2691 23.5897L23.9641 23.5715ZM39.6041 23.5715L39.2731 23.5897C38.6395 23.6651 38.0556 23.9702 37.632 24.4472C37.2083 24.9243 36.9743 25.5401 36.9743 26.1781C36.9743 26.8161 37.2083 27.432 37.632 27.909C38.0556 28.3861 38.6395 28.6912 39.2731 28.7665L39.5781 28.7848L39.9091 28.7665C40.5427 28.6912 41.1266 28.3861 41.5502 27.909C41.9739 27.432 42.2079 26.8161 42.2079 26.1781C42.2079 25.5401 41.9739 24.9243 41.5502 24.4472C41.1266 23.9702 40.5427 23.6651 39.9091 23.5897L39.6041 23.5715Z" fill="white"/>
</g>
<defs>
<clipPath id="clip0_5960_35054">
<rect width="62.56" height="62.56" fill="white" transform="translate(0.472656 0.111572)"/>
</clipPath>
</defs>
</svg>
